<svg xmlns="http://www.w3.org/2000/svg" viewBox="0 0 206 64" role="img" aria-label="礼乘财税">
  <g transform="translate(4,4) scale(0.5833)">
  <defs>
    <linearGradient id="lcg4" x1="0" y1="0" x2="1" y2="1">
      <stop offset="0" stop-color="#1B3A8C"/>
      <stop offset="1" stop-color="#2563EB"/>
    </linearGradient>
  </defs>
  <rect x="4" y="4" width="88" height="88" rx="20" fill="url(#lcg4)"/>
  <line x1="32" y1="32" x2="64" y2="64" stroke="#FFFFFF" stroke-width="10" stroke-linecap="round"/>
  <line x1="34" y1="62" x2="56" y2="40" stroke="#E8B54D" stroke-width="10" stroke-linecap="round"/>
  <polygon points="70,26 64.5,47 49,31.5" fill="#E8B54D"/>
  </g>
  <path d="M88.23 18.83L88.23 40.67C88.23 44.66 89.16 45.89 92.61 45.89C93.3 45.89 95.97 45.89 96.69 45.89C99.93 45.89 100.8 43.94 101.16 38.66C100.2 38.45 98.76 37.76 97.92 37.1C97.74 41.57 97.53 42.65 96.39 42.65C95.79 42.65 93.63 42.65 93.12 42.65C91.98 42.65 91.83 42.38 91.83 40.7L91.83 18.83ZM76.92 19.85C77.82 20.96 78.81 22.37 79.38 23.54L73.83 23.54L73.83 26.78L81.18 26.78C79.2 30.11 76.05 33.14 72.84 34.82C73.26 35.57 73.95 37.49 74.16 38.51C75.54 37.67 76.95 36.62 78.3 35.36L78.3 46.67L81.78 46.67L81.78 34.97C82.8 36.23 83.82 37.58 84.42 38.54L86.67 35.54C85.98 34.82 83.52 32.3 82.17 31.01C83.58 29.09 84.81 26.96 85.68 24.77L83.76 23.42L83.16 23.54L80.88 23.54L82.71 22.43C82.17 21.26 80.94 19.55 79.77 18.29Z M129.5 29.27C128.63 29.75 127.46 30.29 126.26 30.74L126.26 28.37L122.99 28.37L122.99 34.79C122.99 35.99 123.11 36.86 123.44 37.46C122.45 36.53 121.61 35.54 120.92 34.49L120.92 27.77L132.11 27.77L132.11 24.53L120.92 24.53L120.92 22.64C124.16 22.4 127.22 22.04 129.83 21.62L128.27 18.5C122.96 19.43 114.77 20 107.66 20.18C107.99 20.96 108.38 22.31 108.44 23.21C111.2 23.18 114.17 23.09 117.11 22.91L117.11 24.53L105.86 24.53L105.86 27.77L117.11 27.77L117.11 34.4C116.51 35.3 115.79 36.17 114.98 36.98L114.98 28.46L111.62 28.46L111.62 30.08L106.79 30.08L106.79 32.87L111.62 32.87L111.62 34.52C109.43 34.79 107.39 35 105.83 35.15L106.43 38.12L111.62 37.31L111.62 38.36L113.45 38.36C111.02 40.34 107.99 41.9 104.72 42.77C105.5 43.52 106.52 44.9 107.06 45.8C110.96 44.45 114.41 42.14 117.11 39.17L117.11 46.67L120.92 46.67L120.92 39.17C123.56 42.2 126.95 44.54 130.88 45.89C131.39 44.93 132.41 43.55 133.19 42.86C129.86 41.99 126.8 40.37 124.37 38.33C124.88 38.54 125.57 38.63 126.5 38.63C127.07 38.63 128.69 38.63 129.29 38.63C131.33 38.63 132.2 37.88 132.59 35.06C131.66 34.85 130.31 34.37 129.71 33.86C129.62 35.42 129.47 35.66 128.93 35.66C128.54 35.66 127.34 35.66 127.04 35.66C126.38 35.66 126.26 35.57 126.26 34.79L126.26 33.59C128 33.14 129.92 32.54 131.57 31.88Z M138.1 19.67L138.1 38.66L140.89 38.66L140.89 22.52L146.41 22.52L146.41 38.54L149.32 38.54L149.32 19.67ZM142.21 23.9L142.21 32.84C142.21 36.62 141.73 41.66 136.75 44.33C137.44 44.87 138.4 45.95 138.82 46.61C141.4 45.05 142.96 42.98 143.92 40.73C145.3 42.41 146.92 44.6 147.67 46.01L150.1 43.97C149.26 42.56 147.46 40.34 145.99 38.75L144.1 40.25C145 37.82 145.21 35.24 145.21 32.87L145.21 23.9ZM158.2 18.53L158.2 24.44L150.25 24.44L150.25 27.86L156.97 27.86C155.14 32.39 152.14 37.07 148.96 39.56C149.89 40.28 151.03 41.54 151.66 42.5C154.06 40.28 156.37 36.92 158.2 33.35L158.2 42.41C158.2 42.92 158.02 43.04 157.57 43.07C157.09 43.1 155.56 43.1 154.15 43.04C154.66 44 155.23 45.59 155.38 46.58C157.66 46.58 159.31 46.46 160.42 45.89C161.53 45.29 161.92 44.33 161.92 42.44L161.92 27.86L164.83 27.86L164.83 24.44L161.92 24.44L161.92 18.53Z M184.74 27.65L192.15 27.65L192.15 31.61L184.74 31.61ZM181.32 24.5L181.32 34.76L184.02 34.76C183.72 38.84 182.94 42.02 178.53 43.91C179.31 44.54 180.27 45.89 180.66 46.73C185.94 44.24 187.05 40.07 187.47 34.76L189.06 34.76L189.06 42.17C189.06 45.23 189.6 46.22 192.21 46.22C192.72 46.22 193.65 46.22 194.19 46.22C196.26 46.22 197.1 45.08 197.37 40.82C196.5 40.58 195.09 40.04 194.46 39.5C194.37 42.68 194.25 43.13 193.83 43.13C193.59 43.13 192.99 43.13 192.81 43.13C192.42 43.13 192.36 43.04 192.36 42.14L192.36 34.76L195.75 34.76L195.75 24.5L192.84 24.5C193.59 23.09 194.4 21.38 195.15 19.73L191.46 18.56C190.98 20.39 190.02 22.79 189.18 24.5L185.97 24.5L187.77 23.69C187.35 22.25 186.15 20.15 185.04 18.59L182.07 19.88C182.97 21.29 183.93 23.12 184.44 24.5ZM178.71 18.62C176.25 19.67 172.53 20.57 169.2 21.08C169.56 21.86 170.01 23.09 170.16 23.87C171.24 23.75 172.38 23.57 173.55 23.36L173.55 26.99L169.14 26.99L169.14 30.35L172.92 30.35C171.84 33.23 170.16 36.47 168.48 38.39C169.05 39.35 169.89 40.85 170.22 41.93C171.42 40.37 172.56 38.18 173.55 35.81L173.55 46.64L177.03 46.64L177.03 34.4C177.78 35.57 178.53 36.86 178.92 37.7L180.9 34.85C180.33 34.16 177.84 31.52 177.03 30.83L177.03 30.35L180.69 30.35L180.69 26.99L177.03 26.99L177.03 22.67C178.35 22.34 179.61 21.98 180.72 21.56Z" fill="#F5F2EC"/>
</svg>